<svg width="1497" height="1180" viewBox="0 0 1497 1180" fill="none" xmlns="http://www.w3.org/2000/svg">
<path d="M-21.1932 863.156C-5.04422 878.549 2.88661 899.887 9.25463 922.481C15.3775 944.234 20.9823 966.783 34.1053 984.116C61.16 1019.85 108.604 1028.4 152.194 1026.9C200.912 1025.21 251.721 1012.87 298.672 1023.28C321.7 1028.38 343.357 1040.2 355.29 1061.99C365.174 1080.04 364.964 1101.7 358.892 1123.52C355.439 1135.91 350.621 1147.92 345.653 1159.89L350.258 1161.9C351.667 1158.51 353.076 1155.12 354.419 1151.72C362.275 1132.01 369.385 1111.06 368.618 1090.48C367.739 1067.1 356.014 1047.38 339.656 1034.95C319.699 1019.76 293.983 1014.73 268.616 1013.7C244.173 1012.72 219.285 1015.5 194.53 1017.98C147.276 1022.71 95.8229 1025.98 57.4339 998.556C48.4519 992.139 40.5729 984.109 34.4814 974.463C28.4565 964.938 24.323 954.078 20.8608 942.908C14.0806 921.051 9.64719 897.652 -1.6652 878.439C-13.3609 858.561 -31.8372 843.998 -53.2525 837.696C-53.2805 837.683 -53.3135 837.682 -53.3507 837.666L-55.9317 843.176C-42.9456 846.929 -31.0879 853.736 -21.1932 863.156Z" fill="url(#paint0_linear_182_117)"/>
<path d="M-3.4879 942.656C31.9208 981.488 89.523 984.514 131.613 980.212C153.276 977.997 175.332 973.794 196.666 969.721C224.287 964.45 252.844 958.998 280.74 957.852C307.964 956.728 374.284 959.799 401.961 1012.31C417.879 1042.53 418.541 1085.75 403.926 1140.77C402.555 1145.95 401.061 1151.15 399.548 1156.34L400.497 1156.75C402.036 1151.48 403.547 1146.2 404.944 1140.94C419.651 1085.6 418.966 1042.1 402.905 1011.64C374.983 958.664 308.249 955.569 280.854 956.698C252.888 957.852 224.289 963.299 196.63 968.58C175.31 972.646 153.277 976.846 131.661 979.056C89.7707 983.339 32.4646 980.35 -2.69305 941.772C-15.2165 928.039 -24.2605 910.417 -33.0176 893.378C-36.6702 886.275 -40.3675 879.099 -44.3367 872.146L-44.9324 873.418C-41.089 880.185 -37.5073 887.153 -33.9611 894.053C-25.1872 911.151 -16.1068 928.815 -3.4879 942.656Z" fill="url(#paint1_linear_182_117)"/>
<rect x="228.812" y="383.83" width="973.068" height="581.77" fill="#EFEFFF" fill-opacity="0.65"/>
<path d="M177.131 358.107C178.143 358.107 178.964 357.316 178.964 356.339C178.964 355.362 178.143 354.57 177.131 354.57C176.118 354.57 175.298 355.362 175.298 356.339C175.298 357.316 176.118 358.107 177.131 358.107Z" fill="black" fill-opacity="0.21"/>
<path d="M203.666 358.107C204.679 358.107 205.499 357.316 205.499 356.339C205.499 355.362 204.679 354.57 203.666 354.57C202.654 354.57 201.833 355.362 201.833 356.339C201.833 357.316 202.654 358.107 203.666 358.107Z" fill="black" fill-opacity="0.21"/>
<path d="M230.202 358.107C231.214 358.107 232.035 357.316 232.035 356.339C232.035 355.362 231.214 354.57 230.202 354.57C229.189 354.57 228.369 355.362 228.369 356.339C228.369 357.316 229.189 358.107 230.202 358.107Z" fill="black" fill-opacity="0.21"/>
<path d="M256.737 358.107C257.75 358.107 258.57 357.316 258.57 356.339C258.57 355.362 257.75 354.57 256.737 354.57C255.725 354.57 254.904 355.362 254.904 356.339C254.904 357.316 255.725 358.107 256.737 358.107Z" fill="black" fill-opacity="0.21"/>
<path d="M283.274 358.107C284.286 358.107 285.107 357.316 285.107 356.339C285.107 355.362 284.286 354.57 283.274 354.57C282.261 354.57 281.44 355.362 281.44 356.339C281.44 357.316 282.261 358.107 283.274 358.107Z" fill="black" fill-opacity="0.21"/>
<path d="M309.808 358.107C310.821 358.107 311.642 357.316 311.642 356.339C311.642 355.362 310.821 354.57 309.808 354.57C308.796 354.57 307.975 355.362 307.975 356.339C307.975 357.316 308.796 358.107 309.808 358.107Z" fill="black" fill-opacity="0.21"/>
<path d="M338.178 356.339C338.178 357.31 337.351 358.107 336.345 358.107C335.338 358.107 334.511 357.31 334.511 356.339C334.511 355.367 335.338 354.57 336.345 354.57C337.366 354.57 338.178 355.367 338.178 356.339Z" fill="black" fill-opacity="0.21"/>
<path d="M362.88 358.107C363.893 358.107 364.713 357.316 364.713 356.339C364.713 355.362 363.893 354.57 362.88 354.57C361.868 354.57 361.047 355.362 361.047 356.339C361.047 357.316 361.868 358.107 362.88 358.107Z" fill="black" fill-opacity="0.21"/>
<path d="M389.416 358.107C390.428 358.107 391.249 357.316 391.249 356.339C391.249 355.362 390.428 354.57 389.416 354.57C388.404 354.57 387.583 355.362 387.583 356.339C387.583 357.316 388.404 358.107 389.416 358.107Z" fill="black" fill-opacity="0.21"/>
<path d="M177.131 375.317C178.143 375.317 178.964 374.525 178.964 373.548C178.964 372.571 178.143 371.779 177.131 371.779C176.118 371.779 175.298 372.571 175.298 373.548C175.298 374.525 176.118 375.317 177.131 375.317Z" fill="black" fill-opacity="0.21"/>
<path d="M203.666 375.317C204.679 375.317 205.499 374.525 205.499 373.548C205.499 372.571 204.679 371.779 203.666 371.779C202.654 371.779 201.833 372.571 201.833 373.548C201.833 374.525 202.654 375.317 203.666 375.317Z" fill="black" fill-opacity="0.21"/>
<path d="M230.202 375.317C231.214 375.317 232.035 374.525 232.035 373.548C232.035 372.571 231.214 371.779 230.202 371.779C229.189 371.779 228.369 372.571 228.369 373.548C228.369 374.525 229.189 375.317 230.202 375.317Z" fill="black" fill-opacity="0.21"/>
<path d="M256.737 375.317C257.75 375.317 258.57 374.525 258.57 373.548C258.57 372.571 257.75 371.779 256.737 371.779C255.725 371.779 254.904 372.571 254.904 373.548C254.904 374.525 255.725 375.317 256.737 375.317Z" fill="black" fill-opacity="0.21"/>
<path d="M283.274 375.317C284.286 375.317 285.107 374.525 285.107 373.548C285.107 372.571 284.286 371.779 283.274 371.779C282.261 371.779 281.44 372.571 281.44 373.548C281.44 374.525 282.261 375.317 283.274 375.317Z" fill="black" fill-opacity="0.21"/>
<path d="M309.808 375.317C310.821 375.317 311.642 374.525 311.642 373.548C311.642 372.571 310.821 371.779 309.808 371.779C308.796 371.779 307.975 372.571 307.975 373.548C307.975 374.525 308.796 375.317 309.808 375.317Z" fill="black" fill-opacity="0.21"/>
<path d="M338.178 373.548C338.178 374.52 337.351 375.317 336.345 375.317C335.338 375.317 334.511 374.52 334.511 373.548C334.511 372.577 335.338 371.779 336.345 371.779C337.366 371.779 338.178 372.577 338.178 373.548Z" fill="black" fill-opacity="0.21"/>
<path d="M362.88 375.317C363.893 375.317 364.713 374.525 364.713 373.548C364.713 372.571 363.893 371.779 362.88 371.779C361.868 371.779 361.047 372.571 361.047 373.548C361.047 374.525 361.868 375.317 362.88 375.317Z" fill="black" fill-opacity="0.21"/>
<path d="M389.416 375.317C390.428 375.317 391.249 374.525 391.249 373.548C391.249 372.571 390.428 371.779 389.416 371.779C388.404 371.779 387.583 372.571 387.583 373.548C387.583 374.525 388.404 375.317 389.416 375.317Z" fill="black" fill-opacity="0.21"/>
<path d="M177.131 392.527C178.143 392.527 178.964 391.735 178.964 390.758C178.964 389.781 178.143 388.989 177.131 388.989C176.118 388.989 175.298 389.781 175.298 390.758C175.298 391.735 176.118 392.527 177.131 392.527Z" fill="black" fill-opacity="0.21"/>
<path d="M203.666 392.527C204.679 392.527 205.499 391.735 205.499 390.758C205.499 389.781 204.679 388.989 203.666 388.989C202.654 388.989 201.833 389.781 201.833 390.758C201.833 391.735 202.654 392.527 203.666 392.527Z" fill="black" fill-opacity="0.21"/>
<path d="M230.202 392.527C231.214 392.527 232.035 391.735 232.035 390.758C232.035 389.781 231.214 388.989 230.202 388.989C229.189 388.989 228.369 389.781 228.369 390.758C228.369 391.735 229.189 392.527 230.202 392.527Z" fill="black" fill-opacity="0.21"/>
<path d="M256.737 392.527C257.75 392.527 258.57 391.735 258.57 390.758C258.57 389.781 257.75 388.989 256.737 388.989C255.725 388.989 254.904 389.781 254.904 390.758C254.904 391.735 255.725 392.527 256.737 392.527Z" fill="black" fill-opacity="0.21"/>
<path d="M283.274 392.527C284.286 392.527 285.107 391.735 285.107 390.758C285.107 389.781 284.286 388.989 283.274 388.989C282.261 388.989 281.44 389.781 281.44 390.758C281.44 391.735 282.261 392.527 283.274 392.527Z" fill="black" fill-opacity="0.21"/>
<path d="M309.808 392.527C310.821 392.527 311.642 391.735 311.642 390.758C311.642 389.781 310.821 388.989 309.808 388.989C308.796 388.989 307.975 389.781 307.975 390.758C307.975 391.735 308.796 392.527 309.808 392.527Z" fill="black" fill-opacity="0.21"/>
<path d="M338.178 390.758C338.178 391.729 337.351 392.527 336.345 392.527C335.338 392.527 334.511 391.729 334.511 390.758C334.511 389.787 335.338 388.989 336.345 388.989C337.366 388.989 338.178 389.787 338.178 390.758Z" fill="black" fill-opacity="0.21"/>
<path d="M362.88 392.527C363.893 392.527 364.713 391.735 364.713 390.758C364.713 389.781 363.893 388.989 362.88 388.989C361.868 388.989 361.047 389.781 361.047 390.758C361.047 391.735 361.868 392.527 362.88 392.527Z" fill="black" fill-opacity="0.21"/>
<path d="M389.416 392.527C390.428 392.527 391.249 391.735 391.249 390.758C391.249 389.781 390.428 388.989 389.416 388.989C388.404 388.989 387.583 389.781 387.583 390.758C387.583 391.735 388.404 392.527 389.416 392.527Z" fill="black" fill-opacity="0.21"/>
<path d="M177.131 409.736C178.143 409.736 178.964 408.944 178.964 407.968C178.964 406.991 178.143 406.199 177.131 406.199C176.118 406.199 175.298 406.991 175.298 407.968C175.298 408.944 176.118 409.736 177.131 409.736Z" fill="black" fill-opacity="0.21"/>
<path d="M203.666 409.736C204.679 409.736 205.499 408.944 205.499 407.968C205.499 406.991 204.679 406.199 203.666 406.199C202.654 406.199 201.833 406.991 201.833 407.968C201.833 408.944 202.654 409.736 203.666 409.736Z" fill="black" fill-opacity="0.21"/>
<path d="M230.202 409.736C231.214 409.736 232.035 408.944 232.035 407.968C232.035 406.991 231.214 406.199 230.202 406.199C229.189 406.199 228.369 406.991 228.369 407.968C228.369 408.944 229.189 409.736 230.202 409.736Z" fill="black" fill-opacity="0.21"/>
<path d="M256.737 409.736C257.75 409.736 258.57 408.944 258.57 407.968C258.57 406.991 257.75 406.199 256.737 406.199C255.725 406.199 254.904 406.991 254.904 407.968C254.904 408.944 255.725 409.736 256.737 409.736Z" fill="black" fill-opacity="0.21"/>
<path d="M283.274 409.736C284.286 409.736 285.107 408.944 285.107 407.968C285.107 406.991 284.286 406.199 283.274 406.199C282.261 406.199 281.44 406.991 281.44 407.968C281.44 408.944 282.261 409.736 283.274 409.736Z" fill="black" fill-opacity="0.21"/>
<path d="M309.808 409.736C310.821 409.736 311.642 408.944 311.642 407.968C311.642 406.991 310.821 406.199 309.808 406.199C308.796 406.199 307.975 406.991 307.975 407.968C307.975 408.944 308.796 409.736 309.808 409.736Z" fill="black" fill-opacity="0.21"/>
<path d="M338.178 407.968C338.178 408.939 337.351 409.736 336.345 409.736C335.338 409.736 334.511 408.939 334.511 407.968C334.511 406.996 335.338 406.199 336.345 406.199C337.366 406.199 338.178 406.996 338.178 407.968Z" fill="black" fill-opacity="0.21"/>
<path d="M362.88 409.736C363.893 409.736 364.713 408.944 364.713 407.968C364.713 406.991 363.893 406.199 362.88 406.199C361.868 406.199 361.047 406.991 361.047 407.968C361.047 408.944 361.868 409.736 362.88 409.736Z" fill="black" fill-opacity="0.21"/>
<path d="M389.416 409.736C390.428 409.736 391.249 408.944 391.249 407.968C391.249 406.991 390.428 406.199 389.416 406.199C388.404 406.199 387.583 406.991 387.583 407.968C387.583 408.944 388.404 409.736 389.416 409.736Z" fill="black" fill-opacity="0.21"/>
<path d="M177.131 426.947C178.143 426.947 178.964 426.155 178.964 425.178C178.964 424.201 178.143 423.409 177.131 423.409C176.118 423.409 175.298 424.201 175.298 425.178C175.298 426.155 176.118 426.947 177.131 426.947Z" fill="black" fill-opacity="0.21"/>
<path d="M203.666 426.947C204.679 426.947 205.499 426.155 205.499 425.178C205.499 424.201 204.679 423.409 203.666 423.409C202.654 423.409 201.833 424.201 201.833 425.178C201.833 426.155 202.654 426.947 203.666 426.947Z" fill="black" fill-opacity="0.21"/>
<path d="M230.202 426.947C231.214 426.947 232.035 426.155 232.035 425.178C232.035 424.201 231.214 423.409 230.202 423.409C229.189 423.409 228.369 424.201 228.369 425.178C228.369 426.155 229.189 426.947 230.202 426.947Z" fill="black" fill-opacity="0.21"/>
<path d="M256.737 426.947C257.75 426.947 258.57 426.155 258.57 425.178C258.57 424.201 257.75 423.409 256.737 423.409C255.725 423.409 254.904 424.201 254.904 425.178C254.904 426.155 255.725 426.947 256.737 426.947Z" fill="black" fill-opacity="0.21"/>
<path d="M283.274 426.947C284.286 426.947 285.107 426.155 285.107 425.178C285.107 424.201 284.286 423.409 283.274 423.409C282.261 423.409 281.44 424.201 281.44 425.178C281.44 426.155 282.261 426.947 283.274 426.947Z" fill="black" fill-opacity="0.21"/>
<path d="M309.808 426.947C310.821 426.947 311.642 426.155 311.642 425.178C311.642 424.201 310.821 423.409 309.808 423.409C308.796 423.409 307.975 424.201 307.975 425.178C307.975 426.155 308.796 426.947 309.808 426.947Z" fill="black" fill-opacity="0.21"/>
<path d="M338.178 425.178C338.178 426.149 337.351 426.947 336.345 426.947C335.338 426.947 334.511 426.149 334.511 425.178C334.511 424.207 335.338 423.409 336.345 423.409C337.366 423.409 338.178 424.207 338.178 425.178Z" fill="black" fill-opacity="0.21"/>
<path d="M362.88 426.947C363.893 426.947 364.713 426.155 364.713 425.178C364.713 424.201 363.893 423.409 362.88 423.409C361.868 423.409 361.047 424.201 361.047 425.178C361.047 426.155 361.868 426.947 362.88 426.947Z" fill="black" fill-opacity="0.21"/>
<path d="M389.416 426.947C390.428 426.947 391.249 426.155 391.249 425.178C391.249 424.201 390.428 423.409 389.416 423.409C388.404 423.409 387.583 424.201 387.583 425.178C387.583 426.155 388.404 426.947 389.416 426.947Z" fill="black" fill-opacity="0.21"/>
<path d="M1370.14 82.5453C1359.8 101.875 1359.94 127.017 1362.12 153.408C1364.22 178.816 1367.15 205.068 1360.57 226.254C1347.02 269.938 1302.75 285.064 1258.54 288.34C1209.13 291.992 1153.58 283.777 1110.52 300.966C1089.39 309.399 1072.18 325.292 1068.49 351.402C1065.43 373.038 1073.84 397.619 1088.18 421.703C1096.33 435.386 1105.7 448.475 1115.2 461.503L1111.35 464.31C1108.66 460.62 1105.96 456.93 1103.33 453.229C1088 431.734 1072.96 408.758 1065.93 385.291C1057.96 358.634 1062.23 334.896 1073.9 318.903C1088.13 299.378 1111.97 290.718 1136.98 286.657C1161.08 282.743 1187.05 283.063 1212.78 283.047C1261.88 283.023 1314.63 280.855 1342.68 245.322C1349.25 237.007 1354.09 226.986 1356.54 215.334C1358.97 203.826 1358.99 191.018 1358.23 177.936C1356.74 152.335 1352.32 125.251 1356.37 102.136C1360.56 78.2214 1373.54 59.5695 1392.6 49.9637C1392.62 49.9467 1392.65 49.9415 1392.68 49.9188L1397.35 55.8828C1385.77 61.6287 1376.48 70.7155 1370.14 82.5453Z" fill="url(#paint2_linear_182_117)"/>
<path d="M1368.08 173.322C1347.33 221.474 1290.8 231.493 1247.03 231.417C1224.51 231.377 1200.83 229.123 1177.93 226.935C1148.28 224.104 1117.63 221.174 1089.26 223.06C1061.58 224.893 996.344 235.96 988.516 298.771C984.019 334.907 999.72 384.074 1035.19 444.904C1038.52 450.625 1041.98 456.359 1045.46 462.082L1044.67 462.661C1041.13 456.85 1037.62 451.021 1034.23 445.213C998.555 384.036 982.769 334.544 987.316 298.112C995.214 234.751 1060.86 223.61 1088.71 221.762C1117.15 219.878 1147.84 222.796 1177.53 225.634C1200.42 227.816 1224.07 230.069 1246.55 230.109C1290.11 230.187 1346.35 220.245 1366.95 172.409C1374.28 155.379 1376.67 134.33 1378.98 113.976C1379.95 105.491 1380.94 96.9184 1382.28 88.567L1383.35 89.9433C1382.07 98.0694 1381.12 106.393 1380.18 114.635C1377.87 135.058 1375.47 156.159 1368.08 173.322Z" fill="url(#paint3_linear_182_117)"/>
<defs>
<linearGradient id="paint0_linear_182_117" x1="-24.3085" y1="867.365" x2="350.022" y2="1107.82" gradientUnits="userSpaceOnUse">
<stop stop-color="#1F1C9B"/>
<stop offset="0.966632" stop-color="#F4F8FD"/>
</linearGradient>
<linearGradient id="paint1_linear_182_117" x1="-23.7219" y1="883.027" x2="371.638" y2="1067.54" gradientUnits="userSpaceOnUse">
<stop stop-color="#FE873F"/>
<stop offset="1" stop-color="#F4F8FD"/>
</linearGradient>
<linearGradient id="paint2_linear_182_117" x1="1374.85" y1="86.97" x2="1069.62" y2="380.511" gradientUnits="userSpaceOnUse">
<stop offset="0.0467524" stop-color="#F4F8FD"/>
<stop offset="0.473931" stop-color="#1F1C9B"/>
<stop offset="1" stop-color="#EFF1FD"/>
</linearGradient>
<linearGradient id="paint3_linear_182_117" x1="1365.76" y1="103.282" x2="1039.77" y2="358.009" gradientUnits="userSpaceOnUse">
<stop stop-color="#FE873F"/>
<stop offset="1" stop-color="#F4F8FD"/>
</linearGradient>
</defs>
</svg>
