<svg width="1512" height="838" viewBox="0 0 1512 838" fill="none" xmlns="http://www.w3.org/2000/svg">
<mask id="mask0_37_459" style="mask-type:alpha" maskUnits="userSpaceOnUse" x="0" y="0" width="1513" height="838">
<path d="M0 0H1513V838H0V0Z" fill="#1F1C9B"/>
</mask>
<g mask="url(#mask0_37_459)">
<rect width="656.276" height="938.194" rx="245.322" transform="matrix(0.564934 0.825136 -0.816633 0.577158 1510.74 -287.031)" fill="#FE873F"/>
<rect width="636.266" height="994.389" rx="245.322" transform="matrix(0.516609 0.856222 -0.848824 0.528675 1534.37 174.005)" fill="#1F1C9B"/>
<mask id="mask1_37_459" style="mask-type:alpha" maskUnits="userSpaceOnUse" x="741" y="134" width="540" height="537">
<rect width="420.455" height="343.694" transform="matrix(0.768235 -0.640168 0.628125 0.778112 741.274 403.402)" fill="#C4C4C4"/>
</mask>
<g mask="url(#mask1_37_459)">
<path d="M1335.32 491.984L1303.2 504.867L1284.48 534.348L1252.36 547.231L1233.64 576.713L1201.52 589.596L1182.8 619.077L1150.68 631.96L1131.96 661.442L1099.83 674.334L1081.11 703.816L1048.99 716.699L1030.26 746.19L997.996 759.132L997.881 758.542L1029.87 745.709L1048.6 716.218L1080.72 703.335L1099.44 673.853L1131.57 660.961L1150.29 631.479L1182.41 618.596L1201.13 589.114L1233.25 576.231L1251.97 546.75L1284.09 533.867L1302.81 504.385L1334.93 491.502L1353.65 462.021L1385.91 449.079L1386.03 449.669L1354.04 462.502L1335.32 491.984Z" fill="white"/>
<path d="M1328.93 484.068L1296.81 496.951L1278.09 526.433L1245.97 539.316L1227.25 568.797L1195.13 581.68L1176.41 611.162L1144.29 624.045L1125.57 653.526L1093.44 666.419L1074.72 695.901L1042.6 708.784L1023.87 738.275L991.606 751.217L991.491 750.627L1023.48 737.793L1042.21 708.302L1074.33 695.419L1093.05 665.938L1125.18 653.045L1143.9 623.563L1176.02 610.681L1194.74 581.199L1226.86 568.316L1245.58 538.834L1277.7 525.951L1296.42 496.47L1328.54 483.587L1347.26 454.105L1379.52 441.163L1379.64 441.753L1347.65 454.587L1328.93 484.068Z" fill="white"/>
<path d="M1322.54 476.152L1290.42 489.035L1271.7 518.516L1239.58 531.399L1220.86 560.881L1188.74 573.764L1170.02 603.245L1137.9 616.128L1119.18 645.61L1087.05 658.502L1068.33 687.984L1036.21 700.867L1017.48 730.358L985.216 743.3L985.101 742.71L1017.09 729.877L1035.82 700.386L1067.94 687.503L1086.66 658.021L1118.79 645.129L1137.51 615.647L1169.63 602.764L1188.35 573.282L1220.47 560.399L1239.19 530.918L1271.31 518.035L1290.03 488.553L1322.15 475.67L1340.87 446.189L1373.13 433.247L1373.25 433.837L1341.26 446.67L1322.54 476.152Z" fill="white"/>
<path d="M1316.15 468.236L1284.03 481.119L1265.31 510.6L1233.19 523.483L1214.47 552.965L1182.35 565.848L1163.63 595.329L1131.51 608.212L1112.79 637.694L1080.66 650.586L1061.94 680.068L1029.82 692.951L1011.09 722.442L978.826 735.384L978.711 734.794L1010.7 721.961L1029.43 692.47L1061.55 679.587L1080.27 650.105L1112.4 637.213L1131.12 607.731L1163.24 594.848L1181.96 565.366L1214.08 552.483L1232.8 523.002L1264.92 510.119L1283.64 480.637L1315.76 467.754L1334.48 438.273L1366.74 425.331L1366.86 425.921L1334.87 438.754L1316.15 468.236Z" fill="white"/>
<path d="M1309.76 460.32L1277.64 473.203L1258.92 502.684L1226.8 515.567L1208.08 545.049L1175.96 557.932L1157.24 587.413L1125.12 600.296L1106.4 629.778L1074.27 642.671L1055.55 672.152L1023.43 685.035L1004.7 714.526L972.435 727.468L972.313 726.869L1004.31 714.045L1023.03 684.545L1055.16 671.671L1073.87 642.18L1106.01 629.297L1124.72 599.806L1156.85 586.932L1175.56 557.442L1207.69 544.568L1226.4 515.077L1258.53 502.203L1277.24 472.712L1309.37 459.838L1328.08 430.348L1360.35 417.415L1360.47 418.005L1328.48 430.838L1309.76 460.32Z" fill="white"/>
<path d="M1303.37 452.404L1271.24 465.278L1252.53 494.768L1220.4 507.642L1201.69 537.133L1169.56 550.007L1150.85 579.497L1118.72 592.372L1100.01 621.862L1067.87 634.746L1049.16 664.236L1017.03 677.11L998.307 706.61L966.038 719.543L965.923 718.953L997.919 706.129L1016.64 676.629L1048.77 663.755L1067.48 634.264L1099.62 621.381L1118.33 591.89L1150.46 579.016L1169.17 549.526L1201.3 536.652L1220.01 507.161L1252.14 494.287L1270.85 464.796L1302.98 451.922L1321.69 422.432L1353.96 409.499L1354.08 410.089L1322.08 422.913L1303.37 452.404Z" fill="white"/>
<path d="M1296.98 444.488L1264.85 457.362L1246.14 486.853L1214.01 499.727L1195.3 529.217L1163.17 542.091L1144.46 571.582L1112.33 584.456L1093.62 613.947L1061.48 626.83L1042.77 656.321L1010.64 669.195L991.917 698.695L959.648 711.628L959.533 711.038L991.529 698.213L1010.25 668.713L1042.38 655.839L1061.09 626.349L1093.23 613.465L1111.94 583.975L1144.07 571.101L1162.78 541.61L1194.91 528.736L1213.62 499.245L1245.75 486.371L1264.46 456.881L1296.59 444.007L1315.3 414.516L1347.57 401.583L1347.69 402.173L1315.69 414.998L1296.98 444.488Z" fill="white"/>
<path d="M1290.59 436.572L1258.46 449.446L1239.75 478.937L1207.62 491.811L1188.91 521.301L1156.78 534.175L1138.07 563.666L1105.94 576.54L1087.23 606.031L1055.09 618.914L1036.38 648.405L1004.25 661.279L985.527 690.779L953.258 703.712L953.143 703.122L985.131 690.288L1003.86 660.797L1035.98 647.914L1054.7 618.433L1086.83 605.54L1105.55 576.059L1137.67 563.176L1156.39 533.694L1188.51 520.811L1207.23 491.329L1239.35 478.446L1258.07 448.965L1290.19 436.082L1308.91 406.6L1341.17 393.658L1341.3 394.257L1309.3 407.082L1290.59 436.572Z" fill="white"/>
<path d="M1284.19 428.647L1252.07 441.53L1233.35 471.011L1201.23 483.894L1182.51 513.376L1150.39 526.259L1131.67 555.741L1099.55 568.623L1080.83 598.105L1048.7 610.998L1029.98 640.479L997.861 653.362L979.13 682.853L946.868 695.795L946.753 695.205L978.741 682.372L997.473 652.881L1029.59 639.998L1048.31 610.516L1080.44 597.624L1099.16 568.142L1131.28 555.259L1150 525.778L1182.12 512.895L1200.84 483.413L1232.96 470.53L1251.68 441.048L1283.8 428.165L1302.52 398.684L1334.78 385.742L1334.9 386.332L1302.91 399.165L1284.19 428.647Z" fill="white"/>
<path d="M1277.8 420.731L1245.68 433.614L1226.96 463.095L1194.84 475.978L1176.12 505.46L1144 518.343L1125.28 547.825L1093.16 560.707L1074.44 590.189L1042.31 603.082L1023.59 632.563L991.471 645.446L972.74 674.937L940.478 687.879L940.363 687.289L972.351 674.456L991.083 644.965L1023.2 632.082L1041.92 602.6L1074.05 589.708L1092.77 560.226L1124.89 547.343L1143.61 517.862L1175.73 504.979L1194.45 475.497L1226.57 462.614L1245.29 433.132L1277.41 420.249L1296.13 390.768L1328.39 377.826L1328.51 378.416L1296.52 391.249L1277.8 420.731Z" fill="white"/>
<path d="M1271.41 412.815L1239.29 425.698L1220.57 455.179L1188.45 468.062L1169.73 497.544L1137.61 510.427L1118.89 539.908L1086.77 552.791L1068.05 582.273L1035.92 595.166L1017.2 624.647L985.081 637.53L966.349 667.021L934.087 679.963L933.973 679.373L965.961 666.54L984.692 637.049L1016.81 624.166L1035.53 594.684L1067.66 581.792L1086.38 552.31L1118.5 539.427L1137.22 509.945L1169.34 497.063L1188.06 467.581L1220.18 454.698L1238.9 425.216L1271.02 412.333L1289.74 382.852L1322 369.91L1322.12 370.5L1290.13 383.333L1271.41 412.815Z" fill="white"/>
<path d="M1265.02 404.899L1232.9 417.782L1214.18 447.263L1182.06 460.146L1163.34 489.628L1131.22 502.511L1112.5 531.993L1080.38 544.876L1061.66 574.357L1029.53 587.25L1010.81 616.731L978.691 629.614L959.959 659.105L927.697 672.047L927.575 671.448L959.571 658.624L978.295 629.124L1010.42 616.25L1029.13 586.759L1061.27 573.876L1079.99 544.385L1112.11 531.511L1130.83 502.021L1162.95 489.147L1181.67 459.656L1213.79 446.782L1232.51 417.292L1264.63 404.417L1283.34 374.927L1315.61 361.994L1315.73 362.584L1283.74 375.417L1265.02 404.899Z" fill="white"/>
<path d="M1258.63 396.983L1226.51 409.866L1207.79 439.348L1175.67 452.231L1156.95 481.713L1124.83 494.595L1106.11 524.077L1073.99 536.96L1055.27 566.442L1023.14 579.334L1004.42 608.816L972.301 621.699L953.569 651.19L921.307 664.132L921.185 663.533L953.181 650.708L971.905 621.208L1004.03 608.334L1022.74 578.844L1054.88 565.96L1073.6 536.47L1105.72 523.596L1124.44 494.105L1156.56 481.231L1175.28 451.741L1207.4 438.867L1226.12 409.376L1258.24 396.502L1276.95 367.011L1309.22 354.078L1309.34 354.668L1277.35 367.502L1258.63 396.983Z" fill="white"/>
<path d="M998.03 600.9L965.903 613.774L947.179 643.274L914.91 656.207L914.795 655.617L946.79 642.792L965.515 613.292L997.642 600.418L1016.35 570.928L1048.49 558.044L1067.21 528.554L1099.33 515.68L1118.05 486.189L1150.17 473.315L1168.89 443.825L1201.01 430.951L1219.73 401.46L1251.85 388.586L1270.56 359.095L1302.83 346.162L1302.95 346.752L1270.95 359.577L1252.24 389.067L1220.11 401.941L1201.4 431.432L1169.27 444.306L1150.56 473.796L1118.43 486.671L1099.72 516.161L1067.59 529.035L1048.88 558.526L1016.74 571.409L998.03 600.9Z" fill="white"/>
<path d="M1245.85 381.15L1213.72 394.024L1195.01 423.515L1162.88 436.389L1144.17 465.879L1112.04 478.754L1093.33 508.244L1061.2 521.118L1042.49 550.609L1010.35 563.492L991.64 592.983L959.513 605.857L940.789 635.357L908.52 648.29L908.405 647.7L940.393 634.866L959.125 605.375L991.244 592.492L1009.96 563.011L1042.1 550.118L1060.82 520.637L1092.94 507.754L1111.66 478.272L1143.77 465.389L1162.5 435.908L1194.61 423.025L1213.33 393.543L1245.45 380.66L1264.17 351.178L1296.44 338.236L1296.56 338.835L1264.56 351.66L1245.85 381.15Z" fill="white"/>
<path d="M1239.46 373.235L1207.33 386.109L1188.62 415.599L1156.49 428.473L1137.78 457.964L1105.65 470.838L1086.94 500.329L1054.81 513.203L1036.1 542.693L1003.96 555.577L985.25 585.067L953.123 597.941L934.399 627.441L902.13 640.374L902.015 639.784L934.003 626.951L952.735 597.46L984.854 584.577L1003.57 555.095L1035.71 542.203L1054.43 512.721L1086.54 499.838L1105.27 470.357L1137.38 457.474L1156.11 427.992L1188.22 415.109L1206.94 385.627L1239.06 372.744L1257.78 343.263L1290.05 330.321L1290.17 330.92L1258.17 343.744L1239.46 373.235Z" fill="white"/>
<path d="M1233.06 365.31L1200.94 378.193L1182.22 407.674L1150.1 420.557L1131.38 450.039L1099.26 462.922L1080.54 492.404L1048.42 505.287L1029.7 534.768L997.573 547.661L978.853 577.142L946.733 590.025L928.001 619.516L895.739 632.458L895.625 631.868L927.613 619.035L946.345 589.544L978.464 576.661L997.184 547.179L1029.32 534.287L1048.04 504.805L1080.15 491.922L1098.88 462.441L1130.99 449.558L1149.71 420.076L1181.83 407.193L1200.55 377.711L1232.67 364.828L1251.39 335.347L1283.66 322.405L1283.77 322.995L1251.78 335.828L1233.06 365.31Z" fill="white"/>
<path d="M1226.67 357.394L1194.55 370.277L1175.83 399.759L1143.71 412.642L1124.99 442.123L1092.87 455.006L1074.15 484.488L1042.03 497.371L1023.31 526.853L991.183 539.745L972.462 569.227L940.343 582.11L921.611 611.601L889.349 624.543L889.234 623.953L921.223 611.119L939.954 581.628L972.074 568.745L990.794 539.264L1022.92 526.371L1041.65 496.89L1073.76 484.007L1092.48 454.525L1124.6 441.642L1143.32 412.161L1175.44 399.278L1194.16 369.796L1226.28 356.913L1245 327.431L1277.27 314.489L1277.38 315.079L1245.39 327.913L1226.67 357.394Z" fill="white"/>
<path d="M1220.28 349.478L1188.16 362.361L1169.44 391.843L1137.32 404.726L1118.6 434.207L1086.48 447.09L1067.76 476.572L1035.64 489.455L1016.92 518.937L984.793 531.829L966.072 561.311L933.953 574.194L915.221 603.685L882.959 616.627L882.844 616.037L914.833 603.203L933.564 573.712L965.684 560.829L984.404 531.348L1016.53 518.455L1035.26 488.974L1067.37 476.091L1086.09 446.609L1118.21 433.726L1136.93 404.244L1169.05 391.362L1187.77 361.88L1219.89 348.997L1238.61 319.515L1270.88 306.573L1270.99 307.163L1239 319.997L1220.28 349.478Z" fill="white"/>
<path d="M1213.89 341.562L1181.77 354.445L1163.05 383.927L1130.93 396.809L1112.21 426.291L1080.09 439.174L1061.37 468.656L1029.25 481.539L1010.53 511.02L978.402 523.913L959.682 553.394L927.563 566.277L908.831 595.768L876.569 608.711L876.447 608.111L908.442 595.287L927.167 565.787L959.294 552.913L978.007 523.422L1010.14 510.539L1028.86 481.048L1060.98 468.174L1079.7 438.684L1111.82 425.81L1130.54 396.319L1162.66 383.445L1181.38 353.955L1213.5 341.081L1232.22 311.59L1264.49 298.657L1264.6 299.247L1232.61 312.08L1213.89 341.562Z" fill="white"/>
<path d="M1207.5 333.646L1175.38 346.529L1156.66 376.01L1124.54 388.893L1105.82 418.375L1073.7 431.258L1054.98 460.74L1022.86 473.623L1004.14 503.104L972.012 515.997L953.292 545.478L921.173 558.361L902.441 587.852L870.179 600.794L870.057 600.195L902.052 587.371L920.777 557.871L952.903 544.997L971.617 515.506L1003.75 502.623L1022.47 473.132L1054.59 460.258L1073.31 430.768L1105.43 417.894L1124.15 388.403L1156.27 375.529L1174.99 346.039L1207.11 333.165L1225.83 303.674L1258.1 290.741L1258.21 291.331L1226.22 304.164L1207.5 333.646Z" fill="white"/>
<path d="M1201.11 325.73L1168.99 338.604L1150.27 368.094L1118.15 380.969L1099.43 410.459L1067.31 423.333L1048.59 452.824L1016.47 465.698L997.753 495.188L965.615 508.072L946.902 537.562L914.775 550.436L896.051 579.936L863.782 592.87L863.667 592.279L895.662 579.455L914.387 549.955L946.513 537.081L965.226 507.59L997.364 494.707L1016.08 465.216L1048.2 452.342L1066.92 422.852L1099.04 409.978L1117.76 380.487L1149.88 367.613L1168.6 338.123L1200.72 325.249L1219.44 295.758L1251.71 282.825L1251.82 283.415L1219.83 296.239L1201.11 325.73Z" fill="white"/>
<path d="M1194.72 317.814L1162.6 330.688L1143.88 360.178L1111.76 373.053L1093.04 402.543L1060.92 415.417L1042.2 444.908L1010.08 457.782L991.363 487.272L959.225 500.156L940.512 529.646L908.385 542.52L889.661 572.02L857.392 584.954L857.277 584.363L889.265 571.53L907.997 542.039L940.116 529.156L958.836 499.674L990.967 486.782L1009.69 457.3L1041.81 444.417L1060.53 414.936L1092.65 402.053L1111.37 372.571L1143.49 359.688L1162.21 330.207L1194.33 317.324L1213.05 287.842L1245.31 274.9L1245.43 275.499L1213.43 288.323L1194.72 317.814Z" fill="white"/>
<path d="M1188.32 309.889L1156.21 322.772L1137.48 352.254L1105.37 365.137L1086.65 394.619L1054.53 407.502L1035.81 436.983L1003.69 449.866L984.966 479.348L952.835 492.24L934.114 521.722L901.995 534.605L883.263 564.096L851.001 577.038L850.886 576.448L882.875 563.615L901.606 534.123L933.726 521.24L952.446 491.759L984.577 478.866L1003.3 449.385L1035.42 436.502L1054.14 407.02L1086.26 394.137L1104.98 364.656L1137.1 351.773L1155.82 322.291L1187.94 309.408L1206.66 279.926L1238.92 266.984L1239.04 267.583L1207.04 280.408L1188.32 309.889Z" fill="white"/>
<path d="M1181.93 301.973L1149.82 314.856L1131.09 344.338L1098.98 357.221L1080.25 386.703L1048.14 399.586L1029.42 429.067L997.296 441.95L978.575 471.432L946.445 484.324L927.724 513.806L895.605 526.689L876.873 556.18L844.611 569.122L844.496 568.532L876.485 555.699L895.216 526.207L927.336 513.324L946.056 483.843L978.187 470.95L996.907 441.469L1029.03 428.586L1047.75 399.104L1079.87 386.221L1098.59 356.74L1130.71 343.857L1149.43 314.375L1181.55 301.492L1200.27 272.01L1232.53 259.068L1232.64 259.658L1200.65 272.492L1181.93 301.973Z" fill="white"/>
<path d="M1175.54 294.056L1143.42 306.939L1124.7 336.421L1092.59 349.304L1073.86 378.786L1041.75 391.669L1023.03 421.15L990.906 434.033L972.185 463.515L940.055 476.407L921.334 505.889L889.215 518.772L870.483 548.263L838.221 561.205L838.106 560.615L870.095 547.782L888.826 518.29L920.946 505.407L939.666 475.926L971.797 463.033L990.517 433.552L1022.64 420.669L1041.36 391.187L1073.48 378.304L1092.2 348.823L1124.32 335.94L1143.04 306.458L1175.16 293.575L1193.88 264.093L1226.14 251.151L1226.25 251.741L1194.26 264.575L1175.54 294.056Z" fill="white"/>
<path d="M1169.15 286.141L1137.03 299.024L1118.31 328.505L1086.19 341.388L1067.47 370.87L1035.36 383.753L1016.63 413.235L984.516 426.118L965.795 455.599L933.664 468.492L914.944 497.973L882.825 510.856L864.093 540.347L831.831 553.289L831.716 552.699L863.704 539.866L882.436 510.375L914.556 497.492L933.276 468.01L965.407 455.118L984.127 425.636L1016.25 412.753L1034.97 383.272L1067.09 370.389L1085.81 340.907L1117.93 328.024L1136.65 298.542L1168.77 285.66L1187.49 256.178L1219.75 243.236L1219.86 243.826L1187.87 256.659L1169.15 286.141Z" fill="white"/>
<path d="M1162.76 278.225L1130.64 291.108L1111.92 320.59L1079.8 333.473L1061.08 362.954L1028.97 375.837L1010.24 405.319L978.125 418.202L959.405 447.683L927.274 460.576L908.554 490.057L876.435 502.94L857.703 532.431L825.441 545.374L825.319 544.775L857.314 531.95L876.039 502.45L908.165 489.576L926.878 460.086L959.016 447.202L977.73 417.711L1009.86 404.837L1028.57 375.347L1060.7 362.473L1079.41 332.982L1111.54 320.108L1130.25 290.618L1162.38 277.744L1181.09 248.253L1213.36 235.32L1213.47 235.91L1181.48 248.743L1162.76 278.225Z" fill="white"/>
<path d="M1156.37 270.309L1124.25 283.192L1105.53 312.674L1073.41 325.557L1054.69 355.038L1022.57 367.921L1003.85 397.403L971.735 410.286L953.015 439.767L920.884 452.66L902.164 482.141L870.044 495.024L851.313 524.515L819.051 537.458L818.929 536.859L850.924 524.034L869.649 494.534L901.775 481.66L920.488 452.17L952.626 439.286L971.339 409.795L1003.47 396.921L1022.18 367.431L1054.31 354.557L1073.02 325.066L1105.15 312.192L1123.86 282.702L1155.99 269.828L1174.7 240.337L1206.97 227.404L1207.08 227.994L1175.09 240.827L1156.37 270.309Z" fill="white"/>
<path d="M1149.98 262.393L1117.86 275.268L1099.14 304.758L1067.02 317.632L1048.3 347.123L1016.18 359.997L997.465 389.487L965.338 402.361L946.625 431.852L914.487 444.735L895.774 474.226L863.647 487.1L844.923 516.6L812.653 529.533L812.539 528.943L844.534 516.119L863.258 486.619L895.385 473.745L914.098 444.254L946.236 431.37L964.949 401.88L997.076 389.006L1015.79 359.515L1047.92 346.641L1066.63 317.151L1098.76 304.277L1117.47 274.786L1149.6 261.912L1168.31 232.422L1200.58 219.488L1200.69 220.079L1168.7 232.903L1149.98 262.393Z" fill="white"/>
<path d="M1143.59 254.477L1111.47 267.351L1092.75 296.842L1060.63 309.716L1041.91 339.206L1009.79 352.08L991.074 381.571L958.948 394.445L940.235 423.935L908.097 436.819L889.384 466.309L857.257 479.183L838.532 508.683L806.263 521.617L806.148 521.026L838.137 508.193L856.868 478.702L888.988 465.819L907.708 436.337L939.839 423.445L958.559 393.963L990.679 381.08L1009.4 351.599L1041.52 338.716L1060.24 309.234L1092.36 296.351L1111.08 266.87L1143.2 253.987L1161.92 224.505L1194.18 211.563L1194.3 212.162L1162.31 224.986L1143.59 254.477Z" fill="white"/>
<path d="M1137.2 246.552L1105.08 259.435L1086.36 288.917L1054.24 301.8L1035.52 331.281L1003.4 344.164L984.677 373.646L952.558 386.529L933.837 416.01L901.707 428.903L882.986 458.384L850.867 471.267L832.135 500.759L799.873 513.701L799.758 513.11L831.747 500.277L850.478 470.786L882.598 457.903L901.318 428.421L933.449 415.529L952.169 386.047L984.289 373.164L1003.01 343.683L1035.13 330.8L1053.85 301.318L1085.97 288.435L1104.69 258.954L1136.81 246.071L1155.53 216.589L1187.79 203.647L1187.9 204.237L1155.92 217.07L1137.2 246.552Z" fill="white"/>
<path d="M1130.81 238.636L1098.69 251.519L1079.97 281.001L1047.85 293.884L1029.13 323.365L997.007 336.248L978.287 365.73L946.168 378.613L927.447 408.094L895.316 420.987L876.596 450.468L844.477 463.351L825.745 492.842L793.483 505.785L793.368 505.194L825.356 492.361L844.088 462.87L876.208 449.987L894.928 420.505L927.059 407.613L945.779 378.131L977.898 365.248L996.619 335.767L1028.74 322.884L1047.46 293.402L1079.58 280.519L1098.3 251.038L1130.42 238.155L1149.14 208.673L1181.4 195.731L1181.51 196.321L1149.53 209.154L1130.81 238.636Z" fill="white"/>
<path d="M1124.42 230.72L1092.3 243.603L1073.58 273.085L1041.46 285.968L1022.74 315.449L990.617 328.332L971.897 357.814L939.777 370.697L921.057 400.178L888.926 413.071L870.206 442.552L838.087 455.435L819.355 484.926L787.093 497.869L786.978 497.278L818.966 484.445L837.698 454.954L869.817 442.071L888.538 412.589L920.669 399.697L939.389 370.215L971.508 357.332L990.229 327.851L1022.35 314.968L1041.07 285.486L1073.19 272.603L1091.91 243.122L1124.03 230.239L1142.75 200.757L1175.01 187.815L1175.12 188.405L1143.14 201.238L1124.42 230.72Z" fill="white"/>
<path d="M1118.03 222.804L1085.91 235.687L1067.19 265.169L1035.07 278.052L1016.35 307.534L984.227 320.417L965.507 349.898L933.387 362.781L914.667 392.263L882.536 405.155L863.816 434.637L831.696 447.52L812.965 477.011L780.703 489.953L780.588 489.363L812.576 476.53L831.308 447.038L863.427 434.156L882.148 404.674L914.278 391.781L932.999 362.3L965.118 349.417L983.838 319.935L1015.96 307.052L1034.68 277.571L1066.8 264.688L1085.52 235.206L1117.64 222.323L1136.36 192.841L1168.62 179.899L1168.73 180.49L1136.75 193.323L1118.03 222.804Z" fill="white"/>
<path d="M1111.64 214.888L1079.52 227.771L1060.8 257.253L1028.68 270.136L1009.96 299.617L977.837 312.5L959.117 341.982L926.997 354.865L908.277 384.346L876.146 397.239L857.426 426.721L825.306 439.603L806.575 469.095L774.313 482.037L774.191 481.438L806.186 468.613L824.911 439.113L857.037 426.239L875.75 396.749L907.888 383.865L926.601 354.375L958.728 341.5L977.441 312.01L1009.57 299.136L1028.28 269.645L1060.41 256.771L1079.12 227.281L1111.25 214.407L1129.96 184.916L1162.23 171.983L1162.34 172.573L1130.36 185.406L1111.64 214.888Z" fill="white"/>
<path d="M1105.25 206.972L1073.13 219.855L1054.41 249.337L1022.29 262.22L1003.57 291.701L971.447 304.584L952.726 334.066L920.607 346.949L901.887 376.43L869.756 389.323L851.036 418.804L818.916 431.687L800.184 461.179L767.923 474.121L767.8 473.522L799.796 460.697L818.52 431.197L850.647 418.323L869.36 388.833L901.498 375.949L920.211 346.459L952.338 333.584L971.051 304.094L1003.18 291.22L1021.89 261.729L1054.02 248.855L1072.73 219.365L1104.86 206.491L1123.57 177L1155.84 164.067L1155.95 164.657L1123.97 177.49L1105.25 206.972Z" fill="white"/>
<path d="M1098.86 199.056L1066.73 211.93L1048.02 241.421L1015.89 254.295L997.176 283.785L965.049 296.659L946.336 326.15L914.21 339.024L895.497 368.514L863.359 381.398L844.645 410.888L812.519 423.763L793.794 453.263L761.525 466.196L761.41 465.606L793.406 452.781L812.13 423.281L844.257 410.407L862.97 380.917L895.108 368.033L913.821 338.543L945.948 325.668L964.661 296.178L996.787 283.304L1015.5 253.813L1047.63 240.939L1066.34 211.449L1098.47 198.575L1117.18 169.084L1149.45 156.151L1149.56 156.741L1117.57 169.566L1098.86 199.056Z" fill="white"/>
<path d="M1092.47 191.14L1060.34 204.014L1041.63 233.505L1009.5 246.379L990.786 275.869L958.659 288.743L939.946 318.234L907.82 331.108L889.106 360.598L856.968 373.482L838.255 402.972L806.129 415.847L787.404 445.347L755.135 458.28L755.02 457.69L787.008 444.856L805.74 415.365L837.86 402.482L856.58 373.001L888.711 360.108L907.431 330.626L939.55 317.744L958.271 288.262L990.39 275.379L1009.11 245.897L1041.23 233.014L1059.95 203.533L1092.07 190.65L1110.79 161.168L1143.05 148.226L1143.17 148.825L1111.18 161.65L1092.47 191.14Z" fill="white"/>
<path d="M1086.07 183.215L1053.95 196.098L1035.23 225.58L1003.11 238.463L984.389 267.944L952.269 280.827L933.549 310.309L901.429 323.192L882.709 352.673L850.578 365.566L831.858 395.048L799.739 407.931L781.007 437.422L748.745 450.364L748.63 449.774L780.618 436.94L799.35 407.449L831.469 394.566L850.19 365.085L882.321 352.192L901.041 322.71L933.16 309.827L951.881 280.346L984 267.463L1002.72 237.981L1034.84 225.098L1053.56 195.617L1085.68 182.734L1104.4 153.252L1136.66 140.31L1136.78 140.9L1104.79 153.734L1086.07 183.215Z" fill="white"/>
<path d="M1079.68 175.3L1047.56 188.183L1028.84 217.664L996.719 230.547L977.998 260.029L945.879 272.912L927.159 302.393L895.039 315.276L876.319 344.758L844.188 357.65L825.468 387.132L793.348 400.015L774.617 429.506L742.355 442.448L742.24 441.858L774.228 429.025L792.96 399.534L825.079 386.651L843.8 357.169L875.93 344.277L894.651 314.795L926.77 301.912L945.49 272.43L977.61 259.547L996.33 230.066L1028.45 217.183L1047.17 187.701L1079.29 174.818L1098.01 145.337L1130.27 132.395L1130.39 132.985L1098.4 145.818L1079.68 175.3Z" fill="white"/>
<path d="M1073.29 167.384L1041.17 180.267L1022.45 209.748L990.329 222.631L971.608 252.113L939.489 264.996L920.769 294.477L888.649 307.36L869.929 336.842L837.798 349.734L819.078 379.216L786.958 392.099L768.227 421.59L735.965 434.532L735.85 433.942L767.838 421.109L786.57 391.618L818.689 378.735L837.41 349.253L869.54 336.361L888.261 306.879L920.38 293.996L939.1 264.514L971.22 251.631L989.94 222.15L1022.06 209.267L1040.78 179.785L1072.9 166.902L1091.62 137.421L1123.88 124.478L1124 125.069L1092.01 137.902L1073.29 167.384Z" fill="white"/>
<path d="M1066.9 159.468L1034.78 172.351L1016.06 201.832L983.939 214.715L965.218 244.197L933.099 257.08L914.379 286.561L882.259 299.444L863.539 328.926L831.408 341.818L812.688 371.3L780.568 384.183L761.837 413.674L729.575 426.616L729.452 426.017L761.448 413.193L780.172 383.693L812.299 370.819L831.012 341.328L863.15 328.445L881.863 298.954L913.99 286.08L932.703 256.59L964.83 243.715L983.543 214.225L1015.67 201.351L1034.38 171.86L1066.51 158.986L1085.22 129.496L1117.49 116.563L1117.61 117.153L1085.62 129.986L1066.9 159.468Z" fill="white"/>
<path d="M1060.51 151.551L1028.39 164.434L1009.67 193.916L977.548 206.799L958.828 236.28L926.709 249.163L907.988 278.645L875.869 291.528L857.149 321.01L825.018 333.902L806.298 363.384L774.178 376.267L755.446 405.758L723.184 418.7L723.062 418.101L755.058 405.276L773.782 375.776L805.909 362.902L824.622 333.412L856.76 320.528L875.473 291.038L907.6 278.164L926.313 248.673L958.44 235.799L977.153 206.308L1009.28 193.434L1027.99 163.944L1060.12 151.07L1078.83 121.579L1111.1 108.646L1111.22 109.236L1079.23 122.07L1060.51 151.551Z" fill="white"/>
<path d="M1054.12 143.635L1021.99 156.509L1003.28 186L971.151 198.874L952.438 228.364L920.311 241.238L901.598 270.729L869.472 283.603L850.759 313.094L818.621 325.977L799.907 355.468L767.781 368.342L749.056 397.842L716.787 410.775L716.672 410.185L748.668 397.36L767.392 367.86L799.519 354.986L818.232 325.496L850.37 312.612L869.083 283.122L901.21 270.248L919.923 240.757L952.049 227.883L970.763 198.392L1002.89 185.518L1021.6 156.028L1053.73 143.154L1072.44 113.663L1104.71 100.73L1104.83 101.32L1072.83 114.145L1054.12 143.635Z" fill="white"/>
<path d="M1047.73 135.72L1015.6 148.594L996.888 178.084L964.761 190.958L946.048 220.449L913.921 233.323L895.208 262.813L863.082 275.687L844.368 305.178L812.23 318.062L793.517 347.552L761.391 360.426L742.666 389.926L710.397 402.859L710.282 402.269L742.27 389.436L761.002 359.945L793.121 347.062L811.842 317.58L843.973 304.688L862.693 275.206L894.812 262.323L913.533 232.841L945.652 219.959L964.372 190.477L996.492 177.594L1015.21 148.112L1047.33 135.229L1066.05 105.748L1098.31 92.8056L1098.44 93.4047L1066.44 106.229L1047.73 135.72Z" fill="white"/>
<path d="M1041.34 127.804L1009.21 140.678L990.498 170.168L958.371 183.042L939.658 212.533L907.531 225.407L888.818 254.897L856.692 267.771L837.978 297.262L805.84 310.146L787.127 339.636L755.001 352.51L736.276 382.01L704.007 394.943L703.892 394.353L735.88 381.52L754.612 352.029L786.732 339.146L805.452 309.664L837.583 296.772L856.303 267.29L888.422 254.407L907.143 224.925L939.262 212.043L957.982 182.561L990.102 169.678L1008.82 140.196L1040.94 127.313L1059.66 97.8317L1091.92 84.8896L1092.05 85.4887L1060.05 98.3131L1041.34 127.804Z" fill="white"/>
<path d="M1602.68 708.3L1567.12 713.036L1541.51 738.535L1505.96 743.271L1480.35 768.771L1444.79 773.507L1419.18 799.006L1383.62 803.742L1358.01 829.242L1322.44 833.984L1296.83 859.484L1261.28 864.22L1235.65 889.726L1199.94 894.485L1199.95 893.843L1235.36 889.124L1260.99 863.617L1296.54 858.882L1322.15 833.382L1357.72 828.639L1383.34 803.14L1418.89 798.404L1444.5 772.904L1480.06 768.169L1505.67 742.669L1541.22 737.933L1566.84 712.434L1602.39 707.698L1628 682.198L1663.72 677.439L1663.7 678.081L1628.29 682.8L1602.68 708.3Z" fill="#F4F8FD"/>
<path d="M1597.94 698.398L1562.38 703.134L1536.77 728.633L1501.22 733.369L1475.6 758.869L1440.05 763.605L1414.44 789.104L1378.88 793.84L1353.27 819.34L1317.7 824.082L1292.09 849.582L1256.53 854.318L1230.91 879.824L1195.19 884.583L1195.21 883.941L1230.62 879.222L1256.25 853.716L1291.8 848.98L1317.41 823.48L1352.98 818.737L1378.59 793.238L1414.15 788.502L1439.76 763.003L1475.32 758.267L1500.93 732.767L1536.48 728.031L1562.09 702.532L1597.65 697.796L1623.26 672.296L1658.97 667.537L1658.96 668.179L1623.55 672.899L1597.94 698.398Z" fill="#F4F8FD"/>
<path d="M1593.2 688.496L1557.64 693.232L1532.03 718.731L1496.47 723.467L1470.86 748.966L1435.31 753.702L1409.69 779.202L1374.14 783.938L1348.53 809.437L1312.96 814.18L1287.35 839.679L1251.79 844.415L1226.17 869.922L1190.45 874.681L1190.46 874.028L1225.88 869.319L1251.5 843.802L1287.06 839.077L1312.67 813.567L1348.24 808.835L1373.85 783.324L1409.41 778.6L1435.01 753.089L1470.57 748.364L1496.18 722.854L1531.74 718.129L1557.35 692.618L1592.91 687.893L1618.51 662.383L1654.23 657.635L1654.22 658.276L1618.81 662.996L1593.2 688.496Z" fill="#F4F8FD"/>
<path d="M1588.45 678.593L1552.9 683.329L1527.29 708.829L1491.73 713.565L1466.12 739.064L1430.57 743.8L1404.95 769.299L1369.4 774.035L1343.79 799.535L1308.22 804.278L1282.61 829.777L1247.05 834.513L1221.42 860.019L1185.71 864.778L1185.72 864.126L1221.14 859.417L1246.76 833.9L1282.32 829.175L1307.92 803.664L1343.5 798.933L1369.1 773.422L1404.66 768.697L1430.27 743.187L1465.83 738.462L1491.44 712.951L1527 708.227L1552.61 682.716L1588.17 677.991L1613.77 652.48L1649.49 647.733L1649.48 648.374L1614.07 653.094L1588.45 678.593Z" fill="#F4F8FD"/>
<path d="M1583.71 668.691L1548.15 673.416L1522.55 698.926L1486.99 703.651L1461.38 729.162L1425.82 733.887L1400.21 759.397L1364.65 764.122L1339.04 789.633L1303.47 794.364L1277.86 819.875L1242.3 824.599L1216.68 850.117L1180.96 854.865L1180.98 854.223L1216.39 849.515L1242.01 823.997L1277.58 819.273L1303.18 793.762L1338.76 789.03L1364.36 763.52L1399.92 758.795L1425.53 733.284L1461.09 728.56L1486.7 703.049L1522.26 698.324L1547.86 672.814L1583.42 668.089L1609.03 642.578L1644.75 637.83L1644.74 638.472L1609.32 643.18L1583.71 668.691Z" fill="#F4F8FD"/>
<path d="M1578.97 658.789L1543.41 663.514L1517.8 689.024L1482.24 693.749L1456.64 719.26L1421.08 723.985L1395.47 749.495L1359.91 754.22L1334.3 779.731L1298.73 784.462L1273.12 809.973L1237.56 814.698L1211.94 840.215L1176.22 844.963L1176.24 844.321L1211.65 839.602L1237.27 814.095L1272.83 809.36L1298.44 783.86L1334.01 779.117L1359.62 753.618L1395.18 748.882L1420.79 723.382L1456.34 718.647L1481.96 693.147L1517.51 688.411L1543.12 662.912L1578.68 658.176L1604.29 632.676L1640 627.917L1639.99 628.57L1604.58 633.278L1578.97 658.789Z" fill="#F4F8FD"/>
<path d="M1574.22 648.876L1538.67 653.612L1513.06 679.111L1477.5 683.847L1451.89 709.346L1416.33 714.082L1390.72 739.582L1355.17 744.318L1329.56 769.817L1293.99 774.56L1268.37 800.059L1232.82 804.795L1207.19 830.302L1171.48 835.06L1171.5 834.419L1206.91 829.699L1232.53 804.193L1268.09 799.457L1293.7 773.958L1329.27 769.215L1354.88 743.716L1390.43 738.98L1416.05 713.48L1451.6 708.744L1477.21 683.245L1512.77 678.509L1538.38 653.009L1573.94 648.273L1599.55 622.774L1635.26 618.015L1635.25 618.656L1599.84 623.376L1574.22 648.876Z" fill="#F4F8FD"/>
<path d="M1569.48 638.973L1533.93 643.709L1508.31 669.208L1472.76 673.944L1447.15 699.444L1411.59 704.179L1385.98 729.679L1350.43 734.415L1324.81 759.914L1289.25 764.657L1263.63 790.157L1228.08 794.892L1202.45 820.399L1166.74 825.158L1166.75 824.516L1202.16 819.797L1227.79 794.29L1263.34 789.554L1288.96 764.055L1324.53 759.312L1350.14 733.813L1385.69 729.077L1411.3 703.577L1446.86 698.841L1472.47 673.342L1508.03 668.606L1533.64 643.107L1569.19 638.371L1594.81 612.871L1630.52 608.112L1630.5 608.754L1595.09 613.473L1569.48 638.973Z" fill="#F4F8FD"/>
<path d="M1564.74 629.071L1529.19 633.807L1503.57 659.306L1468.02 664.042L1442.41 689.542L1406.85 694.278L1381.24 719.777L1345.68 724.513L1320.07 750.013L1284.5 754.755L1258.89 780.255L1223.34 784.991L1197.71 810.497L1162 815.256L1162.01 814.614L1197.42 809.895L1223.05 784.388L1258.6 779.653L1284.22 754.153L1319.78 749.41L1345.4 723.911L1380.95 719.175L1406.56 693.675L1442.12 688.94L1467.73 663.44L1503.28 658.704L1528.9 633.205L1564.45 628.469L1590.06 602.969L1625.78 598.21L1625.76 598.852L1590.35 603.571L1564.74 629.071Z" fill="#F4F8FD"/>
<path d="M1560 619.169L1524.44 623.904L1498.83 649.404L1463.28 654.14L1437.66 679.639L1402.11 684.375L1376.5 709.875L1340.94 714.611L1315.33 740.11L1279.76 744.853L1254.15 770.352L1218.59 775.088L1192.97 800.595L1157.26 805.353L1157.27 804.712L1192.68 799.992L1218.31 774.486L1253.86 769.75L1279.47 744.251L1315.04 739.508L1340.65 714.009L1376.21 709.273L1401.82 683.773L1437.38 679.037L1462.99 653.538L1498.54 648.802L1524.16 623.302L1559.71 618.566L1585.32 593.067L1621.04 588.308L1621.02 588.949L1585.61 593.669L1560 619.169Z" fill="#F4F8FD"/>
<path d="M1555.26 609.266L1519.7 614.002L1494.09 639.502L1458.53 644.237L1432.92 669.737L1397.37 674.473L1371.76 699.972L1336.2 704.708L1310.59 730.208L1275.02 734.95L1249.41 760.45L1213.85 765.186L1188.23 790.692L1152.51 795.451L1152.52 794.798L1187.94 790.09L1213.56 764.573L1249.12 759.848L1274.73 734.337L1310.3 729.606L1335.91 704.095L1371.47 699.37L1397.07 673.86L1432.63 669.135L1458.24 643.624L1493.8 638.899L1519.41 613.389L1554.97 608.664L1580.58 583.153L1616.29 578.406L1616.28 579.047L1580.87 583.767L1555.26 609.266Z" fill="#F4F8FD"/>
<path d="M1550.51 599.364L1514.96 604.1L1489.35 629.599L1453.79 634.335L1428.18 659.835L1392.63 664.571L1367.01 690.07L1331.46 694.806L1305.85 720.305L1270.28 725.048L1244.67 750.548L1209.11 755.283L1183.49 780.79L1147.77 785.549L1147.78 784.896L1183.2 780.188L1208.82 754.67L1244.38 749.945L1269.98 724.435L1305.56 719.703L1331.17 694.193L1366.73 689.468L1392.33 663.957L1427.89 659.232L1453.5 633.722L1489.06 628.997L1514.67 603.486L1550.23 598.762L1575.83 573.251L1611.55 568.503L1611.54 569.145L1576.13 573.864L1550.51 599.364Z" fill="#F4F8FD"/>
<path d="M1545.77 589.462L1510.21 594.187L1484.61 619.697L1449.05 624.422L1423.44 649.933L1387.88 654.658L1362.27 680.168L1326.71 684.893L1301.1 710.404L1265.53 715.135L1239.92 740.646L1204.36 745.37L1178.74 770.888L1143.03 775.636L1143.04 774.994L1178.46 770.286L1204.08 744.768L1239.64 740.044L1265.24 714.533L1300.82 709.801L1326.42 684.291L1361.98 679.566L1387.59 654.055L1423.15 649.331L1448.76 623.82L1484.32 619.095L1509.92 593.585L1545.48 588.86L1571.09 563.349L1606.81 558.601L1606.8 559.243L1571.38 563.951L1545.77 589.462Z" fill="#F4F8FD"/>
<path d="M1541.03 579.559L1505.47 584.284L1479.86 609.795L1444.3 614.519L1418.7 640.03L1383.14 644.755L1357.53 670.265L1321.97 674.99L1296.36 700.501L1260.79 705.232L1235.18 730.743L1199.62 735.468L1174 760.985L1138.28 765.733L1138.3 765.091L1173.71 760.372L1199.33 734.865L1234.89 730.13L1260.5 704.63L1296.07 699.887L1321.68 674.388L1357.24 669.652L1382.85 644.153L1418.4 639.417L1444.02 613.917L1479.57 609.181L1505.18 583.682L1540.74 578.946L1566.35 553.446L1602.06 548.687L1602.05 549.34L1566.64 554.048L1541.03 579.559Z" fill="#F4F8FD"/>
<path d="M1536.28 569.646L1500.73 574.382L1475.12 599.882L1439.56 604.617L1413.95 630.117L1378.4 634.853L1352.78 660.352L1317.23 665.088L1291.62 690.588L1256.05 695.33L1230.44 720.83L1194.88 725.566L1169.25 751.072L1133.54 755.831L1133.56 755.19L1168.97 750.47L1194.59 724.964L1230.15 720.228L1255.76 694.728L1291.33 689.986L1316.94 664.486L1352.49 659.75L1378.11 634.251L1413.66 629.515L1439.27 604.015L1474.83 599.279L1500.44 573.78L1536 569.044L1561.61 543.544L1597.32 538.786L1597.31 539.427L1561.9 544.147L1536.28 569.646Z" fill="#F4F8FD"/>
<path d="M1531.54 559.744L1495.99 564.48L1470.38 589.979L1434.82 594.715L1409.21 620.215L1373.65 624.95L1348.04 650.45L1312.49 655.186L1286.87 680.685L1251.31 685.428L1225.69 710.928L1190.14 715.663L1164.51 741.17L1128.8 745.929L1128.81 745.287L1164.22 740.568L1189.85 715.061L1225.41 710.325L1251.02 684.826L1286.59 680.083L1312.2 654.584L1347.75 649.848L1373.37 624.348L1408.92 619.612L1434.53 594.113L1470.09 589.377L1495.7 563.878L1531.25 559.142L1556.87 533.642L1592.58 528.883L1592.57 529.525L1557.15 534.244L1531.54 559.744Z" fill="#F4F8FD"/>
<path d="M1526.8 549.841L1491.25 554.577L1465.63 580.077L1430.08 584.813L1404.47 610.312L1368.91 615.048L1343.3 640.548L1307.74 645.284L1282.13 670.783L1246.56 675.526L1220.95 701.025L1185.4 705.761L1159.77 731.267L1124.06 736.026L1124.07 735.385L1159.48 730.665L1185.11 705.159L1220.66 700.423L1246.28 674.924L1281.84 670.181L1307.46 644.681L1343.01 639.945L1368.62 614.446L1404.18 609.71L1429.79 584.211L1465.35 579.475L1490.96 553.975L1526.51 549.239L1552.12 523.74L1587.84 518.981L1587.82 519.622L1552.41 524.342L1526.8 549.841Z" fill="#F4F8FD"/>
<path d="M1522.06 539.939L1486.5 544.675L1460.89 570.174L1425.34 574.91L1399.73 600.41L1364.17 605.146L1338.56 630.645L1303 635.381L1277.39 660.881L1241.82 665.623L1216.21 691.123L1180.66 695.859L1155.03 721.365L1119.32 726.124L1119.33 725.471L1154.74 720.763L1180.36 695.245L1215.92 690.521L1241.53 665.01L1277.1 660.278L1302.71 634.768L1338.27 630.043L1363.88 604.532L1399.44 599.808L1425.04 574.297L1460.6 569.572L1486.21 544.062L1521.77 539.337L1547.38 513.826L1583.1 509.078L1583.08 509.72L1547.67 514.44L1522.06 539.939Z" fill="#F4F8FD"/>
<path d="M1517.32 530.037L1481.76 534.773L1456.15 560.273L1420.6 565.008L1394.98 590.508L1359.43 595.244L1333.82 620.743L1298.26 625.479L1272.65 650.979L1237.08 655.721L1211.47 681.221L1175.91 685.957L1150.29 711.463L1114.57 716.222L1114.58 715.569L1150 710.861L1175.62 685.344L1211.18 680.619L1236.79 655.108L1272.36 650.377L1297.97 624.866L1333.53 620.141L1359.13 594.631L1394.69 589.906L1420.3 564.395L1455.86 559.67L1481.47 534.16L1517.03 529.435L1542.64 503.924L1578.35 499.177L1578.34 499.818L1542.93 504.538L1517.32 530.037Z" fill="#F4F8FD"/>
<path d="M1512.58 520.135L1477.02 524.86L1451.41 550.371L1415.85 555.095L1390.24 580.606L1354.68 585.331L1329.07 610.841L1293.51 615.566L1267.91 641.077L1232.33 645.808L1206.73 671.319L1171.17 676.044L1145.55 701.561L1109.83 706.309L1109.84 705.668L1145.26 700.959L1170.88 675.442L1206.44 670.717L1232.05 645.206L1267.62 640.475L1293.23 614.964L1328.79 610.239L1354.39 584.729L1389.95 580.004L1415.56 554.493L1451.12 549.769L1476.73 524.258L1512.29 519.533L1537.89 494.022L1573.61 489.275L1573.6 489.916L1538.18 494.625L1512.58 520.135Z" fill="#F4F8FD"/>
<path d="M1507.83 510.232L1472.27 514.957L1446.67 540.467L1411.11 545.192L1385.5 570.703L1349.94 575.428L1324.33 600.938L1288.77 605.663L1263.17 631.174L1227.59 635.905L1201.99 661.416L1166.42 666.141L1140.8 691.658L1105.09 696.406L1105.1 695.764L1140.51 691.045L1166.14 665.538L1201.69 660.802L1227.3 635.303L1262.87 630.56L1288.48 605.061L1324.04 600.325L1349.65 574.825L1385.21 570.089L1410.82 544.59L1446.37 539.854L1471.99 514.355L1507.54 509.619L1533.15 484.119L1568.87 479.36L1568.86 480.013L1533.44 484.721L1507.83 510.232Z" fill="#F4F8FD"/>
<path d="M1503.09 500.33L1467.53 505.055L1441.93 530.566L1406.37 535.29L1380.76 560.801L1345.2 565.526L1319.59 591.036L1284.03 595.761L1258.42 621.272L1222.85 626.003L1197.24 651.514L1161.68 656.239L1136.06 681.756L1100.34 686.504L1100.36 685.862L1135.77 681.143L1161.39 655.636L1196.95 650.901L1222.56 625.401L1258.13 620.658L1283.74 595.159L1319.3 590.423L1344.91 564.924L1380.46 560.188L1406.08 534.688L1441.63 529.952L1467.24 504.453L1502.8 499.717L1528.41 474.217L1564.12 469.458L1564.11 470.111L1528.7 474.819L1503.09 500.33Z" fill="#F4F8FD"/>
</g>
<path d="M1052.66 608.198C1021.51 624.227 999.705 652.413 979.619 683.095C960.293 712.64 941.358 743.571 913.764 763.708C856.876 805.231 782.668 798.243 718.904 778.037C647.642 755.441 578.32 716.267 503.96 712.234C467.488 710.259 429.878 718.737 401.943 745.933C378.8 768.471 368.883 800.495 367.566 835.164C366.821 854.864 368.278 874.557 369.975 894.255L362.216 895.315C361.733 889.734 361.249 884.154 360.865 878.596C358.552 846.287 357.924 812.474 368.776 782.444C381.115 748.336 407.767 724.101 437.833 712.52C474.518 698.375 514.932 701.564 552.935 710.526C589.555 719.161 625.051 733.541 660.496 747.411C728.155 773.894 802.715 799.952 872.442 775.369C888.757 769.616 904.202 761.029 917.765 749.322C931.174 737.765 942.415 723.46 952.809 708.422C973.156 678.995 990.761 646.327 1016.56 622.67C1043.25 598.191 1077.45 584.347 1112.1 583.895C1112.15 583.889 1112.2 583.9 1112.26 583.892L1113.48 593.082C1092.5 593.253 1071.74 598.395 1052.66 608.198Z" fill="url(#paint0_linear_37_459)" fill-opacity="0.2"/>
<path d="M988.942 718.1C918.237 760.735 831.609 741.419 771.386 717.702C740.39 705.494 709.751 690.193 680.119 675.382C641.754 656.208 602.09 636.382 561.371 623.177C521.635 610.281 422.092 587.433 356.362 653.433C318.554 691.408 297.171 754.856 292.81 842.017C292.394 850.211 292.149 858.494 291.936 866.771L290.337 866.99C290.549 858.583 290.809 850.17 291.223 841.846C295.598 754.185 317.15 690.326 355.285 652.049C421.593 585.472 521.76 608.456 561.746 621.428C602.566 634.675 642.295 654.51 680.712 673.713C710.327 688.509 740.932 703.797 771.86 715.977C831.797 739.585 917.969 758.834 988.183 716.469C1013.19 701.39 1034.89 679.143 1055.88 657.637C1064.64 648.672 1073.5 639.619 1082.65 631.006L1082.93 633.127C1074.05 641.518 1065.46 650.312 1056.96 659.021C1035.91 680.608 1014.14 702.903 988.942 718.1Z" fill="url(#paint1_linear_37_459)" fill-opacity="0.2"/>
</g>
<defs>
<linearGradient id="paint0_linear_37_459" x1="1055.28" y1="615.69" x2="383.84" y2="800.194" gradientUnits="userSpaceOnUse">
<stop stop-color="#F4F8FD"/>
<stop offset="0.5" stop-color="#FE873F"/>
<stop offset="1" stop-color="#EFF1FD"/>
</linearGradient>
<linearGradient id="paint1_linear_37_459" x1="1047.02" y1="638.539" x2="372.452" y2="726.82" gradientUnits="userSpaceOnUse">
<stop stop-color="#FE873F"/>
<stop offset="1" stop-color="#F4F8FD"/>
</linearGradient>
</defs>
</svg>
