<svg width="185" height="34" viewBox="0 0 185 34" fill="none" xmlns="http://www.w3.org/2000/svg">
<path d="M45.152 8.528H56.84V11.216H52.328V26H49.544V11.216H45.152V8.528ZM62.1804 26.264C60.9804 26.264 59.9564 26.032 59.1084 25.568C58.2604 25.104 57.6124 24.464 57.1644 23.648C56.7164 22.816 56.4924 21.88 56.4924 20.84C56.4924 19.816 56.7484 18.896 57.2604 18.08C57.7724 17.264 58.4604 16.616 59.3244 16.136C60.2044 15.64 61.1724 15.392 62.2284 15.392C63.6204 15.392 64.7644 15.8 65.6604 16.616C66.5724 17.416 67.1804 18.552 67.4844 20.024L59.3004 22.784L58.6764 21.272L65.0604 18.992L64.5084 19.304C64.3324 18.824 64.0444 18.408 63.6444 18.056C63.2604 17.704 62.7164 17.528 62.0124 17.528C61.4524 17.528 60.9564 17.664 60.5244 17.936C60.0924 18.192 59.7484 18.56 59.4924 19.04C59.2524 19.504 59.1324 20.056 59.1324 20.696C59.1324 21.352 59.2684 21.928 59.5404 22.424C59.8124 22.92 60.1804 23.304 60.6444 23.576C61.1084 23.832 61.6364 23.96 62.2284 23.96C62.6444 23.96 63.0444 23.888 63.4284 23.744C63.8124 23.6 64.1724 23.408 64.5084 23.168L65.7324 25.16C65.2044 25.496 64.6204 25.768 63.9804 25.976C63.3564 26.168 62.7564 26.264 62.1804 26.264ZM72.5533 15.848L72.7933 18.032L72.6973 17.744C73.0493 17.04 73.5693 16.48 74.2573 16.064C74.9613 15.632 75.7933 15.416 76.7533 15.416C77.7133 15.416 78.5053 15.696 79.1293 16.256C79.7533 16.816 80.0733 17.552 80.0893 18.464V26H77.4013V19.424C77.3853 18.912 77.2413 18.504 76.9693 18.2C76.6973 17.88 76.2653 17.712 75.6733 17.696C75.1293 17.696 74.6413 17.864 74.2093 18.2C73.7773 18.52 73.4333 18.968 73.1773 19.544C72.9373 20.104 72.8173 20.752 72.8173 21.488V26H70.1293V15.848H72.5533ZM87.9453 26.264C86.9853 26.264 86.1293 26.04 85.3773 25.592C84.6253 25.144 84.0333 24.504 83.6013 23.672C83.1693 22.84 82.9533 21.872 82.9533 20.768C82.9533 19.632 83.1853 18.664 83.6493 17.864C84.1133 17.064 84.7453 16.456 85.5453 16.04C86.3613 15.608 87.2733 15.392 88.2813 15.392C89.0173 15.392 89.7213 15.536 90.3933 15.824C91.0653 16.096 91.6013 16.496 92.0013 17.024L91.9533 17.936V7.28H94.6173V26H91.9293V23.72L92.1933 24.368C91.6813 24.912 91.0653 25.368 90.3453 25.736C89.6413 26.088 88.8413 26.264 87.9453 26.264ZM88.8093 23.984C89.3373 23.984 89.8013 23.896 90.2013 23.72C90.6173 23.544 90.9693 23.296 91.2573 22.976C91.5613 22.64 91.7853 22.248 91.9293 21.8V19.64C91.8013 19.224 91.5853 18.856 91.2813 18.536C90.9933 18.216 90.6333 17.968 90.2013 17.792C89.7693 17.616 89.3053 17.528 88.8093 17.528C88.2333 17.528 87.7053 17.664 87.2253 17.936C86.7613 18.208 86.3853 18.584 86.0973 19.064C85.8093 19.544 85.6653 20.096 85.6653 20.72C85.6653 21.328 85.8093 21.88 86.0973 22.376C86.3853 22.872 86.7693 23.264 87.2493 23.552C87.7293 23.84 88.2493 23.984 88.8093 23.984ZM103.173 26.264C101.973 26.264 100.949 26.032 100.101 25.568C99.2526 25.104 98.6046 24.464 98.1566 23.648C97.7086 22.816 97.4846 21.88 97.4846 20.84C97.4846 19.816 97.7406 18.896 98.2526 18.08C98.7646 17.264 99.4526 16.616 100.317 16.136C101.197 15.64 102.165 15.392 103.221 15.392C104.613 15.392 105.757 15.8 106.653 16.616C107.565 17.416 108.173 18.552 108.477 20.024L100.293 22.784L99.6686 21.272L106.053 18.992L105.501 19.304C105.325 18.824 105.037 18.408 104.637 18.056C104.253 17.704 103.709 17.528 103.005 17.528C102.445 17.528 101.949 17.664 101.517 17.936C101.085 18.192 100.741 18.56 100.485 19.04C100.245 19.504 100.125 20.056 100.125 20.696C100.125 21.352 100.261 21.928 100.533 22.424C100.805 22.92 101.173 23.304 101.637 23.576C102.101 23.832 102.629 23.96 103.221 23.96C103.637 23.96 104.037 23.888 104.421 23.744C104.805 23.6 105.165 23.408 105.501 23.168L106.725 25.16C106.197 25.496 105.613 25.768 104.973 25.976C104.349 26.168 103.749 26.264 103.173 26.264ZM113.545 15.848L113.785 18.728L113.689 18.32C113.977 17.712 114.369 17.192 114.865 16.76C115.377 16.312 115.897 15.976 116.425 15.752C116.953 15.512 117.385 15.392 117.721 15.392L117.601 18.08C116.833 18.016 116.161 18.16 115.585 18.512C115.025 18.848 114.585 19.296 114.265 19.856C113.961 20.416 113.809 21.008 113.809 21.632V26H111.121V15.848H113.545Z" fill="#1F1C9B"/>
<path d="M130.193 12.08C129.569 11.76 128.905 11.488 128.201 11.264C127.497 11.024 126.825 10.904 126.185 10.904C125.321 10.904 124.633 11.096 124.121 11.48C123.625 11.864 123.377 12.392 123.377 13.064C123.377 13.544 123.553 13.968 123.905 14.336C124.257 14.688 124.705 15 125.249 15.272C125.793 15.528 126.369 15.776 126.977 16.016C127.505 16.208 128.025 16.44 128.537 16.712C129.065 16.968 129.537 17.288 129.953 17.672C130.369 18.056 130.697 18.536 130.937 19.112C131.193 19.672 131.321 20.368 131.321 21.2C131.321 22.112 131.089 22.952 130.625 23.72C130.161 24.472 129.497 25.072 128.633 25.52C127.769 25.968 126.713 26.192 125.465 26.192C124.745 26.192 124.033 26.112 123.329 25.952C122.641 25.792 121.985 25.576 121.361 25.304C120.737 25.016 120.161 24.696 119.633 24.344L120.881 22.16C121.265 22.448 121.705 22.712 122.201 22.952C122.697 23.192 123.209 23.384 123.737 23.528C124.265 23.656 124.761 23.72 125.225 23.72C125.721 23.72 126.209 23.64 126.689 23.48C127.185 23.32 127.593 23.056 127.913 22.688C128.249 22.32 128.417 21.832 128.417 21.224C128.417 20.728 128.273 20.304 127.985 19.952C127.697 19.6 127.321 19.296 126.857 19.04C126.409 18.768 125.913 18.528 125.369 18.32C124.825 18.112 124.265 17.88 123.689 17.624C123.129 17.368 122.609 17.056 122.129 16.688C121.649 16.304 121.257 15.84 120.953 15.296C120.649 14.752 120.497 14.08 120.497 13.28C120.497 12.32 120.721 11.488 121.169 10.784C121.617 10.08 122.233 9.52 123.017 9.104C123.817 8.688 124.737 8.464 125.777 8.432C127.009 8.432 128.057 8.584 128.921 8.888C129.801 9.176 130.577 9.528 131.249 9.944L130.193 12.08ZM140.61 26.264C139.906 26.264 139.226 26.112 138.57 25.808C137.914 25.504 137.386 25.088 136.986 24.56L137.13 23.744V30.872H134.442V15.656H136.77L137.13 18.008L136.89 17.288C137.386 16.744 137.986 16.296 138.69 15.944C139.41 15.576 140.218 15.392 141.114 15.392C142.074 15.392 142.93 15.616 143.682 16.064C144.434 16.512 145.026 17.152 145.458 17.984C145.906 18.8 146.13 19.768 146.13 20.888C146.13 22.008 145.89 22.968 145.41 23.768C144.93 24.568 144.274 25.184 143.442 25.616C142.61 26.048 141.666 26.264 140.61 26.264ZM140.082 24.128C140.674 24.128 141.218 23.992 141.714 23.72C142.226 23.448 142.634 23.072 142.938 22.592C143.242 22.096 143.394 21.544 143.394 20.936C143.394 20.296 143.25 19.736 142.962 19.256C142.69 18.76 142.314 18.376 141.834 18.104C141.37 17.816 140.85 17.672 140.274 17.672C139.746 17.672 139.274 17.76 138.858 17.936C138.442 18.112 138.09 18.368 137.802 18.704C137.514 19.024 137.29 19.408 137.13 19.856V21.896C137.242 22.328 137.434 22.712 137.706 23.048C137.978 23.384 138.322 23.648 138.738 23.84C139.154 24.032 139.602 24.128 140.082 24.128ZM153.245 26.264C152.285 26.264 151.413 26.064 150.629 25.664C149.861 25.264 149.253 24.672 148.805 23.888C148.357 23.088 148.133 22.104 148.133 20.936C148.133 19.784 148.365 18.8 148.829 17.984C149.309 17.152 149.933 16.512 150.701 16.064C151.485 15.616 152.333 15.392 153.245 15.392C154.221 15.392 155.005 15.584 155.597 15.968C156.205 16.352 156.677 16.808 157.013 17.336L156.869 17.72L157.133 15.848H159.605V26H156.917V23.528L157.181 24.176C157.117 24.272 156.989 24.432 156.797 24.656C156.605 24.864 156.341 25.096 156.005 25.352C155.669 25.608 155.269 25.824 154.805 26C154.357 26.176 153.837 26.264 153.245 26.264ZM153.989 24.056C154.469 24.056 154.901 23.968 155.285 23.792C155.685 23.616 156.021 23.368 156.293 23.048C156.581 22.728 156.789 22.344 156.917 21.896V19.688C156.789 19.272 156.581 18.912 156.293 18.608C156.005 18.288 155.653 18.04 155.237 17.864C154.837 17.688 154.389 17.6 153.893 17.6C153.349 17.6 152.845 17.736 152.381 18.008C151.917 18.28 151.541 18.656 151.253 19.136C150.981 19.616 150.845 20.168 150.845 20.792C150.845 21.4 150.989 21.952 151.277 22.448C151.565 22.944 151.949 23.336 152.429 23.624C152.909 23.912 153.429 24.056 153.989 24.056ZM171.717 25.064C171.269 25.432 170.717 25.728 170.061 25.952C169.421 26.16 168.773 26.264 168.117 26.264C166.997 26.264 166.013 26.048 165.165 25.616C164.317 25.168 163.653 24.552 163.173 23.768C162.709 22.968 162.477 22.016 162.477 20.912C162.477 19.808 162.725 18.856 163.221 18.056C163.733 17.256 164.397 16.648 165.213 16.232C166.045 15.8 166.925 15.584 167.853 15.584C168.701 15.584 169.453 15.704 170.109 15.944C170.765 16.168 171.333 16.48 171.813 16.88L170.469 18.632C170.213 18.424 169.877 18.232 169.461 18.056C169.061 17.864 168.605 17.768 168.093 17.768C167.549 17.768 167.053 17.904 166.605 18.176C166.173 18.448 165.821 18.824 165.549 19.304C165.293 19.768 165.165 20.304 165.165 20.912C165.165 21.488 165.301 22.016 165.573 22.496C165.845 22.976 166.221 23.36 166.701 23.648C167.181 23.92 167.733 24.056 168.357 24.056C168.757 24.056 169.125 24 169.461 23.888C169.813 23.76 170.117 23.592 170.373 23.384L171.717 25.064ZM179.321 26.264C178.121 26.264 177.097 26.032 176.249 25.568C175.401 25.104 174.753 24.464 174.305 23.648C173.857 22.816 173.633 21.88 173.633 20.84C173.633 19.816 173.889 18.896 174.401 18.08C174.913 17.264 175.601 16.616 176.465 16.136C177.345 15.64 178.313 15.392 179.369 15.392C180.761 15.392 181.905 15.8 182.801 16.616C183.713 17.416 184.321 18.552 184.625 20.024L176.441 22.784L175.817 21.272L182.201 18.992L181.649 19.304C181.473 18.824 181.185 18.408 180.785 18.056C180.401 17.704 179.857 17.528 179.153 17.528C178.593 17.528 178.097 17.664 177.665 17.936C177.233 18.192 176.889 18.56 176.633 19.04C176.393 19.504 176.273 20.056 176.273 20.696C176.273 21.352 176.409 21.928 176.681 22.424C176.953 22.92 177.321 23.304 177.785 23.576C178.249 23.832 178.777 23.96 179.369 23.96C179.785 23.96 180.185 23.888 180.569 23.744C180.953 23.6 181.313 23.408 181.649 23.168L182.873 25.16C182.345 25.496 181.761 25.768 181.121 25.976C180.497 26.168 179.897 26.264 179.321 26.264Z" fill="#FE873F"/>
<path d="M1.93686 16.8521L11.9957 10.9881C13.0016 10.4017 14.0122 9.82456 15.011 9.22419C15.147 9.11904 15.3128 9.05909 15.4849 9.05283C15.6571 9.04656 15.8268 9.0943 15.9701 9.18929C20.2635 11.7071 24.5623 14.2164 28.8665 16.7172C28.9063 16.7428 28.925 16.8009 28.9531 16.8452C28.8455 17.164 28.532 17.2384 28.2911 17.3804C24.2979 19.719 20.2931 22.0344 16.3023 24.3893C15.7736 24.7012 15.3666 24.757 14.7935 24.4196C10.7372 22.0135 6.65517 19.6492 2.58485 17.271C2.41876 17.1709 2.25734 17.0546 1.93686 16.8521Z" fill="#1F1C9B"/>
<path d="M20.6019 3.26703L0.849097 14.7811C0.0443885 15.2465 0.0116445 15.2302 0.00696595 14.3157C0.00696595 12.9521 0.00696595 11.5861 0.00696595 10.2225C0.00696595 9.04036 0.474824 8.21194 1.54621 7.61157C5.70543 5.26749 9.84047 2.89238 13.9513 0.486249C15.0181 -0.135063 15.9982 -0.181598 17.0626 0.469966C18.2767 1.21228 19.5352 1.88712 20.7727 2.5922C21.3084 2.96685 20.8007 3.07855 20.6019 3.26703Z" fill="#FE873F"/>
<path d="M0.343826 18.6835C0.542664 18.7929 0.748524 18.9022 0.947362 19.0186C4.81651 21.2758 8.67865 23.5423 12.5572 25.7809C13.1256 26.109 13.1654 26.3138 12.5899 26.6372C11.0717 27.4982 9.54886 28.3639 8.05406 29.2481C7.90904 29.341 7.73854 29.3866 7.56625 29.3787C7.39396 29.3708 7.22841 29.3097 7.09261 29.2039C5.18689 28.0854 3.27026 26.9832 1.3427 25.8972C0.936489 25.6924 0.596436 25.378 0.36146 24.9899C0.126483 24.6019 0.00607422 24.1558 0.0139958 23.7029C-0.00705768 22.2229 0.0139958 20.7429 0.0139958 19.2629C0.0116565 19.0302 -0.0749028 18.7138 0.343826 18.6835Z" fill="#FE873F"/>
<path d="M30.9882 12.233C30.9882 12.9567 30.9578 13.6851 30.9882 14.4065C31.0187 15.1278 30.7917 15.1348 30.2537 14.8183C27.5526 13.2313 24.8438 11.6497 22.1271 10.0736C20.8943 9.35916 19.6662 8.64011 18.431 7.9327C17.9187 7.63949 17.893 7.4161 18.431 7.11359C19.9531 6.26656 21.4666 5.40246 22.9716 4.5213C23.3646 4.2886 23.6733 4.37935 24.0266 4.57715C25.912 5.67084 27.7951 6.76919 29.69 7.83497C30.1066 8.0495 30.4511 8.38059 30.6809 8.78745C30.9108 9.1943 31.016 9.65916 30.9836 10.1247C30.9742 10.8391 30.9859 11.5349 30.9882 12.233Z" fill="#FE873F"/>
<path d="M30.9859 19.5026C30.9859 18.5346 30.9649 18.516 30.1063 19.0186C23.5657 22.838 17.0251 26.6574 10.4846 30.4768C9.94418 30.791 9.94418 30.9725 10.4846 31.2703C11.8881 32.0499 13.2706 32.8504 14.6625 33.6439C15.252 34.1093 15.8321 34.1256 16.4193 33.6439C20.8031 31.1012 25.1869 28.5586 29.5707 26.0159C30.5532 25.4481 31.0304 24.6616 31.0046 23.5237C30.9649 22.174 30.9906 20.8406 30.9859 19.5026Z" fill="#FE873F"/>
</svg>
