<svg width="32" height="34" viewBox="0 0 32 34" fill="none" xmlns="http://www.w3.org/2000/svg">
<path d="M1.93686 16.8521L11.9957 10.9881C13.0016 10.4017 14.0122 9.82456 15.011 9.22419C15.147 9.11904 15.3128 9.05909 15.4849 9.05283C15.6571 9.04656 15.8268 9.0943 15.9701 9.18929C20.2635 11.7071 24.5623 14.2164 28.8665 16.7172C28.9063 16.7428 28.925 16.8009 28.9531 16.8452C28.8455 17.164 28.532 17.2384 28.2911 17.3804C24.2979 19.719 20.2931 22.0344 16.3023 24.3893C15.7736 24.7012 15.3666 24.757 14.7935 24.4196C10.7372 22.0135 6.65517 19.6492 2.58485 17.271C2.41876 17.1709 2.25734 17.0546 1.93686 16.8521Z" fill="#1F1C9B"/>
<path d="M20.6019 3.26703L0.849097 14.7811C0.0443885 15.2465 0.0116445 15.2302 0.00696595 14.3157C0.00696595 12.9521 0.00696595 11.5861 0.00696595 10.2225C0.00696595 9.04036 0.474824 8.21194 1.54621 7.61157C5.70543 5.26749 9.84047 2.89238 13.9513 0.486249C15.0181 -0.135063 15.9982 -0.181598 17.0626 0.469966C18.2767 1.21228 19.5352 1.88712 20.7727 2.5922C21.3084 2.96685 20.8007 3.07855 20.6019 3.26703Z" fill="#FE873F"/>
<path d="M0.343826 18.6835C0.542664 18.7929 0.748524 18.9022 0.947362 19.0186C4.81651 21.2758 8.67865 23.5423 12.5572 25.7809C13.1256 26.109 13.1654 26.3138 12.5899 26.6372C11.0717 27.4982 9.54886 28.3639 8.05406 29.2481C7.90904 29.341 7.73854 29.3866 7.56625 29.3787C7.39396 29.3708 7.22841 29.3097 7.09261 29.2039C5.18689 28.0854 3.27026 26.9832 1.3427 25.8972C0.936489 25.6924 0.596436 25.378 0.36146 24.9899C0.126483 24.6019 0.00607422 24.1558 0.0139958 23.7029C-0.00705768 22.2229 0.0139958 20.7429 0.0139958 19.2629C0.0116565 19.0302 -0.0749028 18.7138 0.343826 18.6835Z" fill="#FE873F"/>
<path d="M30.9882 12.233C30.9882 12.9567 30.9578 13.6851 30.9882 14.4065C31.0187 15.1278 30.7917 15.1348 30.2537 14.8183C27.5526 13.2313 24.8438 11.6497 22.1271 10.0736C20.8943 9.35916 19.6662 8.64011 18.431 7.9327C17.9187 7.63949 17.893 7.4161 18.431 7.11359C19.9531 6.26656 21.4666 5.40246 22.9716 4.5213C23.3646 4.2886 23.6733 4.37935 24.0266 4.57715C25.912 5.67084 27.7951 6.76919 29.69 7.83497C30.1066 8.0495 30.4511 8.38059 30.6809 8.78745C30.9108 9.1943 31.016 9.65916 30.9836 10.1247C30.9742 10.8391 30.9859 11.5349 30.9882 12.233Z" fill="#FE873F"/>
<path d="M30.9859 19.5026C30.9859 18.5346 30.9649 18.516 30.1063 19.0186C23.5657 22.838 17.0252 26.6574 10.4846 30.4768C9.94418 30.791 9.94418 30.9725 10.4846 31.2703C11.8881 32.0499 13.2706 32.8504 14.6625 33.6439C15.252 34.1093 15.8321 34.1256 16.4193 33.6439C20.8031 31.1012 25.1869 28.5586 29.5707 26.0159C30.5532 25.4481 31.0304 24.6616 31.0046 23.5237C30.9649 22.174 30.9906 20.8406 30.9859 19.5026Z" fill="#FE873F"/>
</svg>
